HIERARCHY
ROOT Hips
{
	OFFSET 0.00000 0.00000 0.00000
	CHANNELS 6 Xposition Yposition Zposition Zrotation Yrotation Xrotation 
	JOINT LHipJoint
	{
		OFFSET 0 0 0
		CHANNELS 3 Zrotation Yrotation Xrotation
		JOINT LeftUpLeg
		{
			OFFSET 1.48831 -1.59570 0.95625
			CHANNELS 3 Zrotation Yrotation Xrotation
			JOINT LeftLeg
			{
				OFFSET 2.20856 -6.06797 0.00000
				CHANNELS 3 Zrotation Yrotation Xrotation
				JOINT LeftFoot
				{
					OFFSET 2.62924 -7.22379 0.00000
					CHANNELS 3 Zrotation Yrotation Xrotation
					JOINT LeftToeBase
					{
						OFFSET 0.16802 -0.46163 2.41673
						CHANNELS 3 Zrotation Yrotation Xrotation
						End Site
						{
							OFFSET 0.00000 -0.00000 1.23760
						}
					}
				}
			}
		}
	}
	JOINT RHipJoint
	{
		OFFSET 0 0 0
		CHANNELS 3 Zrotation Yrotation Xrotation
		JOINT RightUpLeg
		{
			OFFSET -1.56796 -1.59570 0.95625
			CHANNELS 3 Zrotation Yrotation Xrotation
			JOINT RightLeg
			{
				OFFSET -2.29239 -6.29829 0.00000
				CHANNELS 3 Zrotation Yrotation Xrotation
				JOINT RightFoot
				{
					OFFSET -2.66963 -7.33475 0.00000
					CHANNELS 3 Zrotation Yrotation Xrotation
					JOINT RightToeBase
					{
						OFFSET -0.18185 -0.49964 2.34359
						CHANNELS 3 Zrotation Yrotation Xrotation
						End Site
						{
							OFFSET -0.00000 -0.00000 1.20477
						}
					}
				}
			}
		}
	}
	JOINT LowerBack
	{
		OFFSET 0 0 0
		CHANNELS 3 Zrotation Yrotation Xrotation
		JOINT Spine
		{
			OFFSET 0.03505 2.15832 -0.34324
			CHANNELS 3 Zrotation Yrotation Xrotation
			JOINT Spine1
			{
				OFFSET -0.01089 2.17963 0.04689
				CHANNELS 3 Zrotation Yrotation Xrotation
				JOINT Neck
				{
					OFFSET 0 0 0
					CHANNELS 3 Zrotation Yrotation Xrotation
					JOINT Neck1
					{
						OFFSET 0.04686 1.69404 0.22159
						CHANNELS 3 Zrotation Yrotation Xrotation
						JOINT Head
						{
							OFFSET 0.00265 1.69305 -0.01513
							CHANNELS 3 Zrotation Yrotation Xrotation
							End Site
							{
								OFFSET -0.00415 1.80215 -0.03034
							}
						}
					}
				}
				JOINT LeftShoulder
				{
					OFFSET 0 0 0
					CHANNELS 3 Zrotation Yrotation Xrotation
					JOINT LeftArm
					{
						OFFSET 3.67184 1.11724 -0.19002
						CHANNELS 3 Zrotation Yrotation Xrotation
						JOINT LeftForeArm
						{
							OFFSET 5.17714 -0.00000 -0.00000
							CHANNELS 3 Zrotation Yrotation Xrotation
							JOINT LeftHand
							{
								OFFSET 3.43679 -0.00000 -0.00000
								CHANNELS 3 Zrotation Yrotation Xrotation
								JOINT LeftFingerBase
								{
									OFFSET 0 0 0
									CHANNELS 3 Zrotation Yrotation Xrotation
									JOINT LeftHandIndex1
									{
										OFFSET 0.57312 -0.00000 -0.00000
										CHANNELS 3 Zrotation Yrotation Xrotation
										End Site
										{
											OFFSET 0.46206 -0.00000 -0.00000
										}
									}
								}
								JOINT LThumb
								{
									OFFSET 0 0 0
									CHANNELS 3 Zrotation Yrotation Xrotation
									End Site
									{
										OFFSET 0.46912 -0.00000 0.46912
									}
								}
							}
						}
					}
				}
				JOINT RightShoulder
				{
					OFFSET 0 0 0
					CHANNELS 3 Zrotation Yrotation Xrotation
					JOINT RightArm
					{
						OFFSET -3.59596 0.95831 -0.26050
						CHANNELS 3 Zrotation Yrotation Xrotation
						JOINT RightForeArm
						{
							OFFSET -5.23908 -0.00000 -0.00000
							CHANNELS 3 Zrotation Yrotation Xrotation
							JOINT RightHand
							{
								OFFSET -3.46485 -0.00000 -0.00000
								CHANNELS 3 Zrotation Yrotation Xrotation
								JOINT RightFingerBase
								{
									OFFSET 0 0 0
									CHANNELS 3 Zrotation Yrotation Xrotation
									JOINT RightHandIndex1
									{
										OFFSET -0.60875 -0.00000 -0.00000
										CHANNELS 3 Zrotation Yrotation Xrotation
										End Site
										{
											OFFSET -0.49079 -0.00000 -0.00000
										}
									}
								}
								JOINT RThumb
								{
									OFFSET 0 0 0
									CHANNELS 3 Zrotation Yrotation Xrotation
									End Site
									{
										OFFSET -0.49829 -0.00000 0.49829
									}
								}
							}
						}
					}
				}
			}
		}
	}
}
MOTION
Frames: 16
Frame Time: .0083333
-3.6275 16.1860 -5.4185 -537.8350 -1.6839 537.7190 0.0000 0.0000 0.0000 -27.8369 21.9424 -19.4984 2.2259 9.3215 26.8064 1.1509 1.9980 -21.0777 0.0273 1.0662 2.9310 0.0000 0.0000 0.0000 26.5885 -17.4914 17.4930 -0.7079 -5.3773 14.9878 -1.1550 -1.2672 -20.8015 -0.2654 3.3141 -9.1544 9.9561 2.6805 -3.6860 -0.8403 3.1709 -1.6372 -6.3094 1.5377 0.9513 9.1373 16.3137 3.5735 0.8877 20.8747 18.4319 -0.1372 10.4060 5.9639 0.0000 0.0000 0.0000 -82.0765 -7.7749 29.3668 22.3784 -33.4020 -6.7930 -0.0000 0.0000 -23.8723 7.9150 24.6652 3.3205 -7.1250 0.0000 -0.0000 -22.3528 53.4316 -4.8242 0.0000 0.0000 0.0000 86.5639 -14.2164 16.4010 -14.0095 22.7483 -2.8318 0.0000 0.0000 18.1777 -16.0858 -1.7640 0.5086 7.1250 -0.0000 -0.0000 8.4053 -31.7443 2.7515
-3.6393 16.1843 -5.4326 -538.0600 -1.9300 537.7920 0.0000 0.0000 0.0000 -28.1533 21.9409 -19.3424 2.1839 9.2391 26.5463 1.1467 1.8592 -20.9796 0.0273 1.0675 2.9345 0.0000 0.0000 0.0000 26.1078 -17.7964 16.5001 -0.8530 -5.8902 16.4662 -1.1445 -0.6007 -20.4488 -0.2955 3.4952 -9.6606 9.8249 2.6097 -3.5773 -0.8734 3.0961 -1.6390 -6.2800 1.4977 0.8701 9.1863 16.3492 3.6382 0.7321 20.9500 18.4493 -0.1856 10.4370 5.9848 0.0000 0.0000 0.0000 -82.1636 -7.4673 29.9978 22.5608 -33.6050 -6.8937 -0.0000 0.0000 -23.9581 7.6017 24.7241 3.1949 -7.1250 0.0000 -0.0000 -22.6882 53.4300 -4.9017 0.0000 0.0000 0.0000 86.4942 -14.2956 16.2924 -13.9152 22.6133 -2.7954 0.0000 0.0000 18.2188 -15.8464 -1.8053 0.5123 7.1250 -0.0000 -0.0000 8.5999 -31.7812 2.8088
-3.6518 16.1819 -5.4463 -538.2960 -2.1605 537.8690 0.0000 0.0000 0.0000 -28.4878 21.9178 -19.1834 2.1430 9.1577 26.2900 1.1439 1.7540 -20.9088 0.0279 1.0785 2.9649 0.0000 0.0000 0.0000 25.5734 -18.1438 15.4637 -1.0173 -6.4169 17.9989 -1.1239 0.1143 -20.0113 -0.3234 3.6551 -10.1082 9.6914 2.5424 -3.4755 -0.9104 3.0249 -1.6331 -6.2525 1.4606 0.8017 9.2392 16.3817 3.6997 0.5702 21.0234 18.4519 -0.2366 10.4674 6.0026 -0.0000 0.0000 0.0000 -82.2499 -7.1511 30.6276 22.7088 -33.7688 -6.9757 -0.0000 0.0000 -24.0516 7.2917 24.7774 3.0696 -7.1250 0.0000 -0.0000 -23.0169 53.4236 -4.9752 -0.0000 0.0000 0.0000 86.4163 -14.3573 16.2190 -13.8408 22.5067 -2.7669 0.0000 0.0000 18.2178 -15.6448 -1.8536 0.5190 7.1250 -0.0000 -0.0000 8.7654 -31.8261 2.8544
-3.6645 16.1789 -5.4598 -538.5230 -2.3714 537.9520 0.0000 0.0000 0.0000 -28.8149 21.8748 -19.0410 2.1061 9.0837 26.0574 1.1429 1.6740 -20.8656 0.0290 1.0986 3.0202 0.0000 0.0000 0.0000 25.0194 -18.5196 14.3851 -1.2010 -6.9532 19.5769 -1.0917 0.8535 -19.4874 -0.3495 3.7983 -10.5098 9.5711 2.4814 -3.3870 -0.9444 2.9595 -1.6189 -6.2278 1.4276 0.7511 9.2963 16.4112 3.7597 0.4006 21.0954 18.4348 -0.2911 10.4978 6.0157 0.0000 0.0000 0.0000 -82.3335 -6.8350 31.2671 22.8180 -33.8892 -7.0365 -0.0000 0.0000 -24.1667 7.0077 24.8194 2.9537 -7.1250 0.0000 -0.0000 -23.3138 53.4114 -5.0379 0.0000 0.0000 0.0000 86.3338 -14.3958 16.1557 -13.7826 22.4231 -2.7446 0.0000 0.0000 18.2042 -15.4818 -1.8630 0.5159 7.1250 -0.0000 -0.0000 8.8961 -31.8319 2.8966
-3.6772 16.1753 -5.4731 -538.7100 -2.5546 538.0360 0.0000 0.0000 0.0000 -29.0969 21.8125 -18.9251 2.0769 9.0244 25.8717 1.1446 1.6161 -20.8553 0.0305 1.1274 3.0995 0.0000 0.0000 0.0000 24.4831 -18.9140 13.2740 -1.4041 -7.4955 21.1919 -1.0467 1.5933 -18.8710 -0.3750 3.9334 -10.8893 9.4914 2.4280 -3.3079 -0.9653 2.9008 -1.5932 -6.2109 1.3992 0.7205 9.3473 16.4400 3.8175 0.2293 21.1686 18.3941 -0.3462 10.5292 6.0212 0.0000 0.0000 0.0000 -82.4140 -6.5288 31.9166 22.8823 -33.9599 -7.0724 -0.0000 0.0000 -24.3050 6.7471 24.8527 2.8466 -7.1250 0.0000 -0.0000 -23.5830 53.3954 -5.0919 0.0000 0.0000 0.0000 86.2393 -14.4106 16.1270 -13.7421 22.3648 -2.7292 0.0000 0.0000 18.1656 -15.3590 -1.8547 0.5093 7.1250 -0.0000 -0.0000 8.9929 -31.8204 2.9313
-3.6894 16.1712 -5.4862 -538.8360 -2.7048 538.1200 0.0000 0.0000 0.0000 -29.3087 21.7355 -18.8547 2.0588 8.9876 25.7565 1.1500 1.5676 -20.8826 0.0326 1.1648 3.2024 0.0000 0.0000 0.0000 23.9963 -19.3084 12.1336 -1.6265 -8.0405 22.8371 -0.9886 2.3148 -18.1566 -0.3990 4.0557 -11.2334 9.4663 2.3851 -3.2366 -0.9664 2.8527 -1.5573 -6.2026 1.3769 0.7082 9.3923 16.4674 3.8696 0.0574 21.2414 18.3338 -0.4012 10.5610 6.0208 0.0000 0.0000 0.0000 -82.4927 -6.2408 32.5764 22.8951 -33.9739 -7.0796 -0.0000 0.0000 -24.4588 6.5084 24.8793 2.7479 -7.1250 0.0000 -0.0000 -23.8271 53.3771 -5.1385 0.0000 0.0000 0.0000 86.1364 -14.4027 16.1264 -13.7210 22.3344 -2.7212 0.0000 0.0000 18.1132 -15.2849 -1.8311 0.5003 7.1250 -0.0000 -0.0000 9.0492 -31.7946 2.9558
-3.7011 16.1668 -5.4990 -538.8920 -2.8230 538.2080 0.0000 0.0000 0.0000 -29.4378 21.6448 -18.8408 2.0536 8.9769 25.7230 1.1596 1.5208 -20.9472 0.0351 1.2086 3.3229 0.0000 0.0000 0.0000 23.5809 -19.6831 10.9612 -1.8696 -8.5890 24.5179 -0.9182 3.0058 -17.3458 -0.4189 4.1542 -11.5109 9.5027 2.3501 -3.1716 -0.9421 2.8113 -1.5129 -6.2014 1.3587 0.7111 9.4268 16.4964 3.9180 -0.1163 21.3179 18.2567 -0.4555 10.5945 6.0148 -0.0000 0.0000 0.0000 -82.5714 -5.9756 33.2381 22.8523 -33.9269 -7.0557 -0.0000 0.0000 -24.6207 6.2920 24.9008 2.6580 -7.1250 0.0000 -0.0000 -24.0466 53.3582 -5.1789 -0.0000 0.0000 0.0000 86.0214 -14.3681 16.1492 -13.7173 22.3291 -2.7198 0.0000 0.0000 18.0565 -15.2536 -1.8105 0.4936 7.1250 -0.0000 -0.0000 9.0720 -31.7727 2.9682
-3.7118 16.1626 -5.5106 -538.8650 -2.9160 538.3040 0.0000 0.0000 0.0000 -29.4737 21.5437 -18.8937 2.0604 8.9908 25.7666 1.1729 1.4602 -21.0375 0.0382 1.2611 3.4676 0.0000 0.0000 0.0000 23.2588 -20.0266 9.7357 -2.1366 -9.1449 26.2498 -0.8361 3.6505 -16.4326 -0.4355 4.2347 -11.7378 9.6062 2.3217 -3.1082 -0.8903 2.7753 -1.4638 -6.2086 1.3433 0.7224 9.4578 16.5260 3.9526 -0.2917 21.3956 18.1718 -0.5090 10.6289 6.0086 0.0000 -0.0000 0.0000 -82.6541 -5.7449 33.8871 22.7477 -33.8117 -6.9974 -0.0000 0.0000 -24.7584 6.0717 24.9315 2.5673 -7.1250 0.0000 -0.0000 -24.2752 53.3468 -5.2259 0.0000 -0.0000 0.0000 85.8917 -14.3127 16.2241 -13.7390 22.3603 -2.7280 0.0000 0.0000 17.9666 -15.2554 -1.8045 0.4921 7.1250 -0.0000 -0.0000 9.0698 -31.7666 2.9688
-3.7212 16.1585 -5.5202 -538.7910 -2.9889 538.4040 0.0000 0.0000 0.0000 -29.4541 21.4476 -19.0017 2.0754 9.0215 25.8625 1.1882 1.3797 -21.1371 0.0417 1.3178 3.6236 0.0000 0.0000 0.0000 22.9974 -20.3203 8.4525 -2.4330 -9.7151 28.0589 -0.7449 4.2458 -15.4243 -0.4465 4.2872 -11.8861 9.7364 2.2950 -3.0331 -0.8186 2.7412 -1.4082 -6.2100 1.3288 0.7344 9.4814 16.5572 3.9722 -0.4710 21.4762 18.0787 -0.5613 10.6646 6.0020 0.0000 0.0000 0.0000 -82.7493 -5.5566 34.5001 22.5783 -33.6245 -6.9034 -0.0000 0.0000 -24.8459 5.8301 24.9698 2.4681 -7.1250 0.0000 -0.0000 -24.5285 53.3387 -5.2808 0.0000 0.0000 0.0000 85.7443 -14.2277 16.3446 -13.7833 22.4241 -2.7449 0.0000 0.0000 17.8478 -15.2870 -1.8301 0.5001 7.1250 -0.0000 -0.0000 9.0475 -31.7935 2.9554
-3.7291 16.1546 -5.5271 -538.7110 -3.0469 538.5070 0.0000 0.0000 0.0000 -29.4238 21.3603 -19.1448 2.0932 9.0576 25.9757 1.2033 1.2849 -21.2285 0.0458 1.3816 3.7995 0.0000 0.0000 0.0000 22.7580 -20.5461 7.1044 -2.7655 -10.3054 29.9715 -0.6473 4.7745 -14.3315 -0.4547 4.3257 -11.9947 9.8528 2.2678 -2.9343 -0.7412 2.7094 -1.3459 -6.1981 1.3155 0.7396 9.5084 16.5867 3.9718 -0.6608 21.5559 17.9790 -0.6155 10.7001 5.9980 0.0000 -0.0000 0.0000 -82.8502 -5.4160 35.0778 22.3462 -33.3660 -6.7753 -0.0000 0.0000 -24.8830 5.5618 25.0174 2.3582 -7.1250 0.0000 -0.0000 -24.8127 53.3342 -5.3453 0.0000 -0.0000 0.0000 85.5858 -14.1104 16.5074 -13.8510 22.5214 -2.7708 0.0000 0.0000 17.6954 -15.3340 -1.8751 0.5141 7.1250 -0.0000 -0.0000 9.0150 -31.8408 2.9342
-3.7354 16.1503 -5.5312 -538.6930 -3.0895 538.6000 0.0000 0.0000 0.0000 -29.4542 21.3135 -19.2916 2.1071 9.0857 26.0637 1.2157 1.1705 -21.2890 0.0505 1.4501 3.9883 0.0000 0.0000 0.0000 22.4576 -20.6960 5.7058 -3.1411 -10.9200 32.0105 -0.5456 5.2478 -13.1553 -0.4549 4.3270 -11.9985 9.8873 2.2373 -2.7931 -0.6768 2.6811 -1.2724 -6.1548 1.3044 0.7305 9.5362 16.6147 3.9538 -0.8574 21.6348 17.8666 -0.6705 10.7356 5.9937 -0.0000 0.0000 0.0000 -82.9573 -5.3233 35.6093 22.0550 -33.0391 -6.6158 -0.0000 0.0000 -24.8637 5.2691 25.0751 2.2383 -7.1250 0.0000 -0.0000 -25.1261 53.3343 -5.4200 -0.0000 0.0000 0.0000 85.4201 -13.9590 16.7049 -13.9428 22.6529 -2.8061 0.0000 0.0000 17.5075 -15.3873 -1.9456 0.5353 7.1250 -0.0000 -0.0000 8.9802 -31.9142 2.9066
-3.7408 16.1452 -5.5334 -538.7730 -3.1058 538.6760 0.0000 0.0000 0.0000 -29.5889 21.3083 -19.4114 2.1121 9.0958 26.0954 1.2240 1.0658 -21.3185 0.0554 1.5183 4.1761 0.0000 0.0000 0.0000 22.0431 -20.7565 4.2744 -3.5646 -11.5574 34.1836 -0.4425 5.6532 -11.9008 -0.4504 4.3054 -11.9375 9.8164 2.2083 -2.6076 -0.6401 2.6639 -1.1871 -6.0820 1.2996 0.7075 9.5635 16.6394 3.9272 -1.0576 21.7100 17.7368 -0.7267 10.7698 5.9855 0.0000 0.0000 0.0000 -83.0694 -5.2688 36.0901 21.7098 -32.6475 -6.4286 -0.0000 0.0000 -24.7929 4.9699 25.1325 2.1151 -7.1250 0.0000 -0.0000 -25.4454 53.3327 -5.4952 0.0000 0.0000 0.0000 85.2566 -13.7784 16.9060 -14.0537 22.8115 -2.8489 0.0000 0.0000 17.3020 -15.4412 -2.0073 0.5543 7.1250 -0.0000 -0.0000 8.9439 -31.9788 2.8805
-3.7453 16.1392 -5.5340 -538.9730 -3.0957 538.7320 0.0000 0.0000 0.0000 -29.8528 21.3590 -19.4922 2.1049 9.0812 26.0497 1.2270 0.9675 -21.3062 0.0603 1.5850 4.3599 0.0000 0.0000 0.0000 21.4893 -20.7157 2.8263 -4.0385 -12.2115 36.4843 -0.3417 5.9706 -10.5851 -0.4436 4.2732 -11.8466 9.6189 2.1792 -2.3676 -0.6374 2.6570 -1.0974 -5.9751 1.2998 0.6563 9.5891 16.6614 3.9052 -1.2549 21.7818 17.5895 -0.7833 10.8029 5.9703 0.0000 0.0000 0.0000 -83.1851 -5.2332 36.5168 21.3170 -32.1965 -6.2180 -0.0000 0.0000 -24.6761 4.6777 25.1853 1.9942 -7.1250 0.0000 -0.0000 -25.7552 53.3284 -5.5666 0.0000 0.0000 0.0000 85.0997 -13.5814 17.0986 -14.1801 22.9916 -2.8981 0.0000 0.0000 17.0809 -15.5057 -2.0493 0.5684 7.1250 -0.0000 -0.0000 8.8971 -32.0234 2.8554
-3.7493 16.1326 -5.5334 -539.2780 -3.0632 538.7800 0.0000 0.0000 0.0000 -30.2332 21.4612 -19.5458 2.0855 9.0420 25.9269 1.2251 0.8705 -21.2521 0.0660 1.6578 4.5609 0.0000 0.0000 0.0000 20.8201 -20.5766 1.3572 -4.5611 -12.8718 38.8906 -0.2479 6.1571 -9.2325 -0.4507 4.3072 -11.9425 9.3174 2.1536 -2.0753 -0.6695 2.6634 -1.0164 -5.8478 1.3050 0.5660 9.6122 16.6787 3.8958 -1.4375 21.8452 17.4274 -0.8379 10.8330 5.9462 0.0000 0.0000 0.0000 -83.2961 -5.1986 36.8960 20.8838 -31.6925 -5.9888 -0.0000 0.0000 -24.5182 4.4052 25.2361 1.8812 -7.1250 0.0000 -0.0000 -26.0448 53.3254 -5.6343 0.0000 0.0000 0.0000 84.9605 -13.3843 17.2623 -14.3221 23.1933 -2.9538 0.0000 0.0000 16.8598 -15.5611 -2.0728 0.5771 7.1250 -0.0000 -0.0000 8.8555 -32.0490 2.8363
-3.7528 16.1258 -5.5318 -539.6590 -3.0176 538.8320 0.0000 0.0000 0.0000 -30.7057 21.6126 -19.5892 2.0548 8.9794 25.7308 1.2182 0.7605 -21.1508 0.0723 1.7353 4.7746 0.0000 0.0000 0.0000 20.0731 -20.3307 -0.1326 -5.1290 -13.5276 41.3769 -0.1646 6.2196 -7.8672 -0.4667 4.3818 -12.1534 8.9359 2.1270 -1.7397 -0.7266 2.6734 -0.9574 -5.7038 1.3093 0.4265 9.6353 16.6951 3.9095 -1.6041 21.9049 17.2602 -0.8906 10.8620 5.9149 -0.0000 0.0000 0.0000 -83.4068 -5.1461 37.2079 20.4151 -31.1392 -5.7444 -0.0000 0.0000 -24.3219 4.1633 25.2798 1.7805 -7.1250 0.0000 -0.0000 -26.3009 53.3215 -5.6934 -0.0000 0.0000 0.0000 84.8353 -13.1975 17.3881 -14.4727 23.4064 -3.0133 0.0000 0.0000 16.6623 -15.6262 -2.0673 0.5781 7.1250 -0.0000 -0.0000 8.8030 -32.0449 2.8200
-3.7557 16.1188 -5.5286 -540.0880 -2.9656 538.9020 0.0000 0.0000 0.0000 -31.2437 21.8054 -19.6437 2.0140 8.8952 25.4681 1.2066 0.6284 -21.0012 0.0795 1.8188 5.0051 0.0000 0.0000 0.0000 19.2872 -19.9938 -1.6550 -5.7371 -14.1686 43.9172 -0.0933 6.1655 -6.4946 -0.4855 4.4678 -12.3967 8.5021 2.1002 -1.3671 -0.8032 2.6849 -0.9288 -5.5528 1.3112 0.2334 9.6658 16.7130 3.9440 -1.7510 21.9632 17.0978 -0.9404 10.8914 5.8806 0.0000 0.0000 0.0000 -83.5149 -5.0708 37.4492 19.9149 -30.5396 -5.4880 -0.0000 0.0000 -24.0787 3.9510 25.3189 1.6919 -7.1250 0.0000 -0.0000 -26.5259 53.3187 -5.7459 0.0000 0.0000 0.0000 84.7262 -13.0313 17.4961 -14.6371 23.6382 -3.0790 0.0000 0.0000 16.4644 -15.6997 -2.0557 0.5777 7.1250 -0.0000 -0.0000 8.7431 -32.0349 2.8025
